<svg width="314" height="94" viewBox="0 0 314 94" fill="none" xmlns="http://www.w3.org/2000/svg">
<rect width="314" height="94" rx="21" fill="#9B59B6"/>
<path d="M85.8922 53.2362C85.2024 51.0848 82.2464 49.4316 79.9308 48.6762C79.0713 48.3916 78.1462 48.8623 77.867 49.7218C77.5878 50.5812 78.0531 51.5064 78.9126 51.7855C81.0311 52.4808 82.4106 53.5811 82.7226 54.1066C81.4854 55.5846 78.0915 56.9915 72.8746 57.6539C72.7268 57.6539 72.579 57.6703 72.4366 57.7086C70.4495 57.9385 68.2106 58.0699 65.7362 58.0535C65.0793 56.132 63.2674 54.7525 61.127 54.7525C59.2165 54.7525 57.5633 55.8583 56.7695 57.4568C54.4102 57.1721 51.9194 56.7725 49.2973 56.2415C30.384 52.426 19.7039 44.4885 19.2824 41.3025C19.2769 41.2532 19.2769 41.2477 19.3152 41.193C19.5178 40.9467 20.1309 40.6784 20.9137 40.6292C21.8169 40.5744 22.5012 39.7971 22.4465 38.8939C22.3917 37.9906 21.6199 37.3063 20.7112 37.3611C19.047 37.4651 17.6182 38.1001 16.7862 39.1128C16.1676 39.8683 15.9048 40.7715 16.0307 41.735C16.4084 44.6089 19.6546 47.8222 24.6909 50.8002C24.2803 51.2272 23.8041 51.5775 23.2785 51.8239C22.4957 52.1906 22.1399 53.1048 22.4574 53.9095L25.7583 62.2138C25.9226 62.6354 26.2565 62.9638 26.6725 63.1335C27.094 63.2977 27.5593 63.2868 27.9699 63.0952C29.1304 62.5532 30.4169 62.5368 31.5883 63.0404C34.1119 64.1298 35.3272 67.2665 34.3035 70.0419C34.0024 70.8576 34.3911 71.7663 35.1903 72.1111L38.546 73.5563C38.5515 73.5563 38.5515 73.5618 38.557 73.5618C38.5789 73.5782 38.6008 73.5947 38.6227 73.6111C38.6445 73.6275 38.6664 73.6384 38.6938 73.6549C38.7157 73.6713 38.7431 73.6822 38.765 73.6932C38.7924 73.7041 38.8142 73.7206 38.8416 73.7315C38.858 73.737 38.869 73.7479 38.8799 73.7534C38.8909 73.7589 38.9018 73.7644 38.9183 73.7644C38.9292 73.7698 38.9402 73.7753 38.9511 73.7808C42.1425 74.9796 45.5037 75.5927 48.9524 75.5927C59.419 75.5927 68.9003 69.9488 73.9037 60.807C79.6516 60.0023 83.7353 58.2779 85.4816 55.9021C86.0454 55.1193 86.1932 54.1723 85.8922 53.2362ZM32.8802 60.0296C31.3803 59.3837 29.7709 59.2304 28.2272 59.5643L26.0102 53.9807C26.6123 53.5373 27.1543 53.0008 27.6196 52.3986C32.1522 54.6978 37.7139 56.7725 43.7574 58.3327L38.6883 70.0529L37.7851 69.6642C38.5022 65.7009 36.5096 61.5953 32.8802 60.0296ZM48.9469 72.3137C46.4781 72.3137 44.0585 71.9579 41.732 71.2572L46.9927 59.1045C47.5401 59.2249 48.0875 59.3399 48.6404 59.4549C51.4049 60.0132 53.9832 60.4183 56.3754 60.7084C56.8681 62.8762 58.8059 64.502 61.1215 64.502C63.2181 64.502 65.0027 63.1773 65.687 61.3161C65.791 61.3161 65.9005 61.3161 66.0045 61.3161C67.4004 61.3161 68.6704 61.2723 69.8254 61.2066C65.1779 68.1259 57.4264 72.3137 48.9469 72.3137Z" fill="white"/>
<path d="M23.3388 42.6656C24.7566 43.2568 25.7967 44.4939 26.1853 46.0595C26.3714 46.804 27.0393 47.2967 27.7728 47.2967C27.9042 47.2967 28.0411 47.2803 28.1725 47.2474C29.0483 47.0285 29.5793 46.1362 29.3603 45.2603C28.8567 43.2568 27.6415 41.5269 26.0047 40.4102L28.063 35.0181C29.5465 35.2864 31.0792 35.1167 32.5025 34.509C34.528 33.6386 36.0881 32.0019 36.8928 29.8888C37.484 28.3451 37.6154 26.6919 37.287 25.0989L42.2247 22.8819C43.106 24.2012 44.3432 25.2248 45.8102 25.8434C47.77 26.6591 49.9214 26.6536 51.8702 25.816C53.381 25.1701 54.6291 24.0917 55.505 22.7122L58.6034 24.0041L52.8336 37.3447C51.9468 37.1147 51.0326 36.9943 50.102 36.9943C44.1516 36.9943 39.3124 41.8335 39.3124 47.7839C39.3124 48.939 39.493 50.0776 39.8543 51.1669C40.0843 51.8567 40.7193 52.2892 41.409 52.2892C41.5787 52.2892 41.7539 52.2618 41.9236 52.207C42.783 51.9224 43.2483 50.9972 42.9637 50.1378C42.7119 49.3824 42.586 48.5886 42.586 47.7839C42.586 43.64 45.958 40.2733 50.0965 40.2733C51.1311 40.2733 52.1384 40.4814 53.0799 40.8919C53.1347 40.9138 53.184 40.9357 53.2387 40.9521C53.2551 40.9576 53.2661 40.9576 53.2825 40.9631C53.3208 40.974 53.3591 40.985 53.4029 40.9959C53.4193 41.0014 53.4412 41.0014 53.4577 41.0069C53.4905 41.0124 53.5288 41.0178 53.5617 41.0233C53.5836 41.0233 53.6 41.0233 53.6219 41.0288C53.6547 41.0288 53.6876 41.0342 53.7204 41.0342H53.7259C53.7314 41.0342 53.7368 41.0342 53.7423 41.0342C53.808 41.0342 53.8682 41.0288 53.9339 41.0178C53.9503 41.0178 53.9668 41.0124 53.9832 41.0124C54.0544 41.0014 54.12 40.985 54.1857 40.9686C54.1912 40.9686 54.1967 40.9631 54.1967 40.9631C54.2569 40.9467 54.3226 40.9193 54.3828 40.8919C54.3992 40.8864 54.4102 40.881 54.4266 40.87C54.4923 40.8427 54.5525 40.8098 54.6127 40.7715L54.6182 40.766C54.6729 40.7277 54.7277 40.6894 54.7824 40.6456C54.7934 40.6346 54.8098 40.6237 54.8207 40.6127C54.8755 40.5635 54.9247 40.5142 54.974 40.4595C55.0178 40.4047 55.0616 40.35 55.0999 40.2898C55.1109 40.2733 55.1163 40.2624 55.1273 40.246C55.1656 40.1803 55.1985 40.1201 55.2313 40.0489L61.5704 25.4055C69.3437 29.9052 74.1008 38.0946 74.1008 47.1708C74.1008 49.6013 73.7559 51.999 73.0771 54.3091C72.8198 55.174 73.318 56.0882 74.1829 56.3455C74.3362 56.3893 74.4949 56.4112 74.6482 56.4112C75.3544 56.4112 76.0058 55.9514 76.2193 55.2343C76.9911 52.6285 77.3798 49.9134 77.3798 47.1708C77.3798 41.7623 75.8525 36.4962 72.9676 31.9471C70.1594 27.524 66.1961 23.9603 61.5047 21.6502C61.4938 21.6447 61.4773 21.6392 61.4664 21.6338C61.4554 21.6283 61.4445 21.6228 61.4335 21.6173C61.4226 21.6119 61.4062 21.6064 61.3952 21.6009C61.3679 21.59 61.3405 21.579 61.3131 21.5736C61.2857 21.5626 61.2584 21.5571 61.2365 21.5462C61.2091 21.5407 61.1872 21.5298 61.1598 21.5243C61.1325 21.5188 61.0996 21.5133 61.0722 21.5079C61.0613 21.5024 61.0449 21.4969 61.0339 21.4914L55.3682 19.1266C54.9576 18.9569 54.4978 18.9569 54.0927 19.1321C53.6876 19.3072 53.3646 19.6357 53.2059 20.0517C52.7187 21.3272 51.7826 22.3126 50.5837 22.8271C49.456 23.3089 48.2079 23.3143 47.0748 22.8436C45.8978 22.3509 44.9672 21.3984 44.4581 20.1612C44.2884 19.7507 43.96 19.4277 43.5494 19.2635C43.1388 19.0992 42.679 19.1102 42.2739 19.2908L34.6375 22.7177C33.8327 23.079 33.4605 24.015 33.7944 24.8307C34.309 26.0843 34.3254 27.4692 33.8382 28.7338C33.351 30.0093 32.4204 31.0001 31.2161 31.5147C30.0884 31.9964 28.8403 32.0019 27.7071 31.5311C27.2966 31.3614 26.8368 31.3614 26.4317 31.5366C26.0266 31.7117 25.7036 32.0457 25.5448 32.4562L22.441 40.5744C22.129 41.401 22.5231 42.3262 23.3388 42.6656Z" fill="white"/>
<path d="M116.28 62.576C112.152 62.576 108.808 61.296 106.248 58.736C103.688 56.176 102.408 52.784 102.408 48.56V27.92H109.368V48.656C109.368 50.896 109.992 52.656 111.24 53.936C112.488 55.216 114.168 55.856 116.28 55.856C118.392 55.856 120.072 55.216 121.32 53.936C122.568 52.656 123.192 50.896 123.192 48.656V27.92H130.152V48.56C130.152 52.752 128.856 56.144 126.264 58.736C123.672 61.296 120.344 62.576 116.28 62.576ZM142.541 72.032H135.965V38H142.541V40.688C143.149 39.824 144.077 39.072 145.325 38.432C146.573 37.792 147.965 37.472 149.501 37.472C152.669 37.472 155.341 38.704 157.517 41.168C159.693 43.632 160.781 46.576 160.781 50C160.781 53.424 159.693 56.368 157.517 58.832C155.341 61.296 152.669 62.528 149.501 62.528C147.965 62.528 146.573 62.208 145.325 61.568C144.077 60.928 143.149 60.176 142.541 59.312V72.032ZM143.645 54.704C144.765 55.92 146.237 56.528 148.061 56.528C149.885 56.528 151.341 55.92 152.429 54.704C153.549 53.488 154.109 51.92 154.109 50C154.109 48.08 153.549 46.512 152.429 45.296C151.341 44.08 149.885 43.472 148.061 43.472C146.237 43.472 144.765 44.08 143.645 45.296C142.557 46.512 142.013 48.08 142.013 50C142.013 51.92 142.557 53.488 143.645 54.704ZM173.466 62.528C168.922 62.528 165.626 60.992 163.578 57.92L168.09 54.08C169.242 55.936 171.034 56.864 173.466 56.864C174.202 56.864 174.826 56.72 175.338 56.432C175.85 56.144 176.106 55.712 176.106 55.136C176.106 54.624 175.882 54.208 175.434 53.888C175.018 53.536 174.17 53.184 172.89 52.832L171.114 52.4C168.906 51.824 167.226 50.864 166.074 49.52C164.954 48.176 164.426 46.576 164.49 44.72C164.554 42.544 165.418 40.8 167.082 39.488C168.778 38.144 170.922 37.472 173.514 37.472C177.194 37.472 179.962 38.816 181.818 41.504L177.498 45.008C176.378 43.6 175.018 42.896 173.418 42.896C172.778 42.896 172.218 43.04 171.738 43.328C171.258 43.616 171.018 44.016 171.018 44.528C171.018 45.488 171.802 46.176 173.37 46.592L175.626 47.264C180.266 48.512 182.586 50.992 182.586 54.704C182.586 56.976 181.722 58.848 179.994 60.32C178.266 61.792 176.09 62.528 173.466 62.528ZM198.581 62.288C195.893 62.288 193.685 61.552 191.957 60.08C190.261 58.576 189.413 56.416 189.413 53.6V43.76H184.565V38H189.413V31.328H195.989V38H202.757V43.76H195.989V52.304C195.989 53.776 196.309 54.832 196.949 55.472C197.589 56.08 198.629 56.384 200.069 56.384C201.093 56.384 201.989 56.24 202.757 55.952V61.76C201.605 62.112 200.213 62.288 198.581 62.288ZM216.185 62.528C213.337 62.528 211.113 61.568 209.513 59.648C207.945 57.728 207.161 55.152 207.161 51.92V38H213.737V50.816C213.737 54.624 215.097 56.528 217.817 56.528C219.353 56.528 220.553 55.952 221.417 54.8C222.313 53.648 222.761 51.952 222.761 49.712V38H229.337V62H222.761V59.264C221.289 61.44 219.097 62.528 216.185 62.528ZM245.412 62.528C242.244 62.528 239.572 61.296 237.396 58.832C235.22 56.368 234.132 53.424 234.132 50C234.132 46.576 235.22 43.632 237.396 41.168C239.572 38.704 242.244 37.472 245.412 37.472C246.948 37.472 248.324 37.792 249.54 38.432C250.756 39.072 251.684 39.824 252.324 40.688V26H258.9V62H252.324V59.312C251.684 60.176 250.756 60.928 249.54 61.568C248.324 62.208 246.948 62.528 245.412 62.528ZM242.388 54.704C243.508 55.92 244.98 56.528 246.804 56.528C248.628 56.528 250.084 55.92 251.172 54.704C252.292 53.488 252.852 51.92 252.852 50C252.852 48.08 252.292 46.512 251.172 45.296C250.084 44.08 248.628 43.472 246.804 43.472C244.98 43.472 243.508 44.08 242.388 45.296C241.3 46.512 240.756 48.08 240.756 50C240.756 51.92 241.3 53.488 242.388 54.704ZM274.413 72.032H267.261L272.301 60.656L262.221 38H269.421L275.853 53.552L282.237 38H289.485L274.413 72.032Z" fill="white"/>
</svg>
