<svg width="314" height="94" viewBox="0 0 314 94" fill="none" xmlns="http://www.w3.org/2000/svg">
<rect width="314" height="94" rx="21" fill="#18222B"/>
<path d="M85.8464 55.0396C85.153 52.8766 82.181 51.2145 79.8529 50.455C78.9888 50.1688 78.0587 50.6421 77.778 51.5062C77.4973 52.3703 77.9651 53.3004 78.8292 53.5811C80.9591 54.28 82.3461 55.3863 82.6598 55.9146C81.416 57.4007 78.0037 58.8151 72.7586 59.4811C72.61 59.4811 72.4614 59.4976 72.3183 59.5361C70.3205 59.7672 68.0694 59.8993 65.5818 59.8828C64.9213 57.951 63.0996 56.5641 60.9476 56.5641C59.0268 56.5641 57.3647 57.6758 56.5667 59.2829C54.1946 58.9967 51.6904 58.595 49.0541 58.0611C30.0388 54.225 19.301 46.2446 18.8773 43.0415C18.8717 42.9919 18.8717 42.9864 18.9103 42.9314C19.1139 42.6837 19.7303 42.414 20.5174 42.3645C21.4255 42.3095 22.1134 41.5279 22.0584 40.6198C22.0034 39.7117 21.2273 39.0237 20.3137 39.0788C18.6406 39.1834 17.2041 39.8218 16.3676 40.84C15.7456 41.5995 15.4815 42.5076 15.608 43.4763C15.9878 46.3657 19.2515 49.5964 24.3149 52.5904C23.9021 53.0197 23.4233 53.3719 22.895 53.6196C22.1079 53.9883 21.7502 54.9075 22.0694 55.7165L25.3881 64.0656C25.5533 64.4894 25.889 64.8197 26.3073 64.9903C26.7311 65.1554 27.1989 65.1444 27.6116 64.9517C28.7784 64.4069 30.0718 64.3904 31.2496 64.8967C33.7868 65.9919 35.0086 69.1456 33.9794 71.936C33.6767 72.756 34.0675 73.6696 34.871 74.0164L38.2448 75.4693C38.2503 75.4693 38.2503 75.4748 38.2558 75.4748C38.2778 75.4914 38.2999 75.5079 38.3219 75.5244C38.3439 75.5409 38.3659 75.5519 38.3934 75.5684C38.4154 75.5849 38.443 75.5959 38.465 75.6069C38.4925 75.6179 38.5145 75.6345 38.542 75.6455C38.5585 75.651 38.5695 75.662 38.5805 75.6675C38.5916 75.673 38.6026 75.6785 38.6191 75.6785C38.6301 75.684 38.6411 75.6895 38.6521 75.695C41.8608 76.9003 45.24 77.5167 48.7074 77.5167C59.2305 77.5167 68.7629 71.8424 73.7933 62.6512C79.5722 61.8421 83.678 60.1085 85.4337 57.7199C86.0005 56.9328 86.1491 55.9807 85.8464 55.0396ZM32.5485 61.8697C31.0405 61.2202 29.4224 61.0661 27.8703 61.4018L25.6413 55.7881C26.2467 55.3423 26.7916 54.8029 27.2594 54.1975C31.8165 56.509 37.4083 58.595 43.4844 60.1635L38.3879 71.947L37.4798 71.5562C38.2008 67.5715 36.1974 63.4437 32.5485 61.8697ZM48.7019 74.22C46.2197 74.22 43.7871 73.8623 41.448 73.1578L46.7371 60.9395C47.2874 61.0606 47.8378 61.1762 48.3937 61.2918C51.173 61.8532 53.7653 62.2604 56.1704 62.5521C56.6657 64.7316 58.6141 66.3662 60.9421 66.3662C63.0501 66.3662 64.8443 65.0343 65.5322 63.163C65.6368 63.163 65.7469 63.163 65.8515 63.163C67.2549 63.163 68.5318 63.119 69.693 63.053C65.0204 70.0097 57.2271 74.22 48.7019 74.22Z" fill="#9B59B6"/>
<path d="M22.9555 44.4119C24.381 45.0063 25.4267 46.2501 25.8174 47.8242C26.0046 48.5727 26.676 49.068 27.4135 49.068C27.5456 49.068 27.6832 49.0515 27.8153 49.0185C28.6959 48.7983 29.2297 47.9012 29.0096 47.0206C28.5032 45.0063 27.2814 43.2671 25.6358 42.1443L27.7052 36.7232C29.1967 36.9929 30.7378 36.8223 32.1687 36.2113C34.2051 35.3362 35.7737 33.6906 36.5827 31.5662C37.1771 30.0142 37.3092 28.352 36.979 26.7505L41.9433 24.5215C42.8294 25.8478 44.0733 26.877 45.5483 27.499C47.5186 28.319 49.6815 28.3135 51.6409 27.4714C53.1599 26.822 54.4147 25.7378 55.2953 24.3508L58.4104 25.6497L52.6095 39.0623C51.7179 38.8311 50.7988 38.71 49.8632 38.71C43.8806 38.71 39.0153 43.5753 39.0153 49.5578C39.0153 50.7191 39.197 51.8639 39.5602 52.9591C39.7914 53.6526 40.4298 54.0874 41.1233 54.0874C41.2939 54.0874 41.47 54.0599 41.6406 54.0048C42.5047 53.7187 42.9725 52.7885 42.6863 51.9244C42.4331 51.1649 42.3066 50.3669 42.3066 49.5578C42.3066 45.3915 45.6968 42.0068 49.8577 42.0068C50.8979 42.0068 51.9105 42.2159 52.8572 42.6287C52.9122 42.6507 52.9618 42.6727 53.0168 42.6892C53.0333 42.6947 53.0443 42.6947 53.0608 42.7002C53.0993 42.7112 53.1379 42.7222 53.1819 42.7332C53.1984 42.7387 53.2204 42.7387 53.2369 42.7442C53.27 42.7498 53.3085 42.7553 53.3415 42.7608C53.3635 42.7608 53.38 42.7608 53.4021 42.7663C53.4351 42.7663 53.4681 42.7718 53.5011 42.7718H53.5066C53.5121 42.7718 53.5176 42.7718 53.5231 42.7718C53.5892 42.7718 53.6497 42.7663 53.7158 42.7553C53.7323 42.7553 53.7488 42.7498 53.7653 42.7498C53.8368 42.7387 53.9029 42.7222 53.9689 42.7057C53.9744 42.7057 53.9799 42.7002 53.9799 42.7002C54.0405 42.6837 54.1065 42.6562 54.1671 42.6287C54.1836 42.6232 54.1946 42.6177 54.2111 42.6067C54.2771 42.5791 54.3377 42.5461 54.3982 42.5076L54.4037 42.5021C54.4588 42.4636 54.5138 42.425 54.5688 42.381C54.5798 42.37 54.5964 42.359 54.6074 42.348C54.6624 42.2984 54.7119 42.2489 54.7615 42.1939C54.8055 42.1388 54.8495 42.0838 54.8881 42.0233C54.8991 42.0068 54.9046 41.9957 54.9156 41.9792C54.9541 41.9132 54.9871 41.8526 55.0201 41.7811L61.3934 27.0587C69.2087 31.5827 73.9915 39.8163 73.9915 48.9414C73.9915 51.3851 73.6447 53.7957 72.9623 56.1183C72.7036 56.9879 73.2044 57.907 74.074 58.1657C74.2281 58.2097 74.3877 58.2317 74.5418 58.2317C75.2518 58.2317 75.9067 57.7694 76.1214 57.0484C76.8974 54.4286 77.2882 51.6988 77.2882 48.9414C77.2882 43.5038 75.7526 38.2092 72.8522 33.6356C70.0288 29.1886 66.0441 25.6057 61.3274 23.2831C61.3164 23.2776 61.2999 23.2721 61.2889 23.2666C61.2779 23.2611 61.2669 23.2556 61.2559 23.2501C61.2448 23.2446 61.2283 23.2391 61.2173 23.2336C61.1898 23.2226 61.1623 23.2116 61.1348 23.2061C61.1073 23.1951 61.0797 23.1896 61.0577 23.1785C61.0302 23.173 61.0082 23.162 60.9807 23.1565C60.9532 23.151 60.9201 23.1455 60.8926 23.14C60.8816 23.1345 60.8651 23.129 60.8541 23.1235L55.1577 20.7459C54.745 20.5753 54.2826 20.5753 53.8754 20.7514C53.4681 20.9275 53.1434 21.2577 52.9838 21.676C52.4939 22.9584 51.5528 23.9491 50.3475 24.4664C49.2137 24.9507 47.9589 24.9562 46.8196 24.4829C45.6363 23.9876 44.7007 23.0299 44.1888 21.7861C44.0182 21.3733 43.688 21.0486 43.2752 20.8835C42.8624 20.7184 42.4001 20.7294 41.9929 20.911L34.3152 24.3563C33.5061 24.7196 33.1319 25.6607 33.4676 26.4808C33.9849 27.7411 34.0015 29.1336 33.5116 30.4049C33.0218 31.6873 32.0862 32.6835 30.8753 33.2008C29.7416 33.6851 28.4867 33.6906 27.3475 33.2173C26.9347 33.0467 26.4724 33.0467 26.0651 33.2228C25.6578 33.3989 25.3331 33.7347 25.1735 34.1474L22.0529 42.3095C21.7392 43.1405 22.1354 44.0706 22.9555 44.4119Z" fill="#9B59B6"/>
<path d="M116.28 62.576C112.152 62.576 108.808 61.296 106.248 58.736C103.688 56.176 102.408 52.784 102.408 48.56V27.92H109.368V48.656C109.368 50.896 109.992 52.656 111.24 53.936C112.488 55.216 114.168 55.856 116.28 55.856C118.392 55.856 120.072 55.216 121.32 53.936C122.568 52.656 123.192 50.896 123.192 48.656V27.92H130.152V48.56C130.152 52.752 128.856 56.144 126.264 58.736C123.672 61.296 120.344 62.576 116.28 62.576ZM142.541 72.032H135.965V38H142.541V40.688C143.149 39.824 144.077 39.072 145.325 38.432C146.573 37.792 147.965 37.472 149.501 37.472C152.669 37.472 155.341 38.704 157.517 41.168C159.693 43.632 160.781 46.576 160.781 50C160.781 53.424 159.693 56.368 157.517 58.832C155.341 61.296 152.669 62.528 149.501 62.528C147.965 62.528 146.573 62.208 145.325 61.568C144.077 60.928 143.149 60.176 142.541 59.312V72.032ZM143.645 54.704C144.765 55.92 146.237 56.528 148.061 56.528C149.885 56.528 151.341 55.92 152.429 54.704C153.549 53.488 154.109 51.92 154.109 50C154.109 48.08 153.549 46.512 152.429 45.296C151.341 44.08 149.885 43.472 148.061 43.472C146.237 43.472 144.765 44.08 143.645 45.296C142.557 46.512 142.013 48.08 142.013 50C142.013 51.92 142.557 53.488 143.645 54.704ZM173.466 62.528C168.922 62.528 165.626 60.992 163.578 57.92L168.09 54.08C169.242 55.936 171.034 56.864 173.466 56.864C174.202 56.864 174.826 56.72 175.338 56.432C175.85 56.144 176.106 55.712 176.106 55.136C176.106 54.624 175.882 54.208 175.434 53.888C175.018 53.536 174.17 53.184 172.89 52.832L171.114 52.4C168.906 51.824 167.226 50.864 166.074 49.52C164.954 48.176 164.426 46.576 164.49 44.72C164.554 42.544 165.418 40.8 167.082 39.488C168.778 38.144 170.922 37.472 173.514 37.472C177.194 37.472 179.962 38.816 181.818 41.504L177.498 45.008C176.378 43.6 175.018 42.896 173.418 42.896C172.778 42.896 172.218 43.04 171.738 43.328C171.258 43.616 171.018 44.016 171.018 44.528C171.018 45.488 171.802 46.176 173.37 46.592L175.626 47.264C180.266 48.512 182.586 50.992 182.586 54.704C182.586 56.976 181.722 58.848 179.994 60.32C178.266 61.792 176.09 62.528 173.466 62.528ZM198.581 62.288C195.893 62.288 193.685 61.552 191.957 60.08C190.261 58.576 189.413 56.416 189.413 53.6V43.76H184.565V38H189.413V31.328H195.989V38H202.757V43.76H195.989V52.304C195.989 53.776 196.309 54.832 196.949 55.472C197.589 56.08 198.629 56.384 200.069 56.384C201.093 56.384 201.989 56.24 202.757 55.952V61.76C201.605 62.112 200.213 62.288 198.581 62.288ZM216.185 62.528C213.337 62.528 211.113 61.568 209.513 59.648C207.945 57.728 207.161 55.152 207.161 51.92V38H213.737V50.816C213.737 54.624 215.097 56.528 217.817 56.528C219.353 56.528 220.553 55.952 221.417 54.8C222.313 53.648 222.761 51.952 222.761 49.712V38H229.337V62H222.761V59.264C221.289 61.44 219.097 62.528 216.185 62.528ZM245.412 62.528C242.244 62.528 239.572 61.296 237.396 58.832C235.22 56.368 234.132 53.424 234.132 50C234.132 46.576 235.22 43.632 237.396 41.168C239.572 38.704 242.244 37.472 245.412 37.472C246.948 37.472 248.324 37.792 249.54 38.432C250.756 39.072 251.684 39.824 252.324 40.688V26H258.9V62H252.324V59.312C251.684 60.176 250.756 60.928 249.54 61.568C248.324 62.208 246.948 62.528 245.412 62.528ZM242.388 54.704C243.508 55.92 244.98 56.528 246.804 56.528C248.628 56.528 250.084 55.92 251.172 54.704C252.292 53.488 252.852 51.92 252.852 50C252.852 48.08 252.292 46.512 251.172 45.296C250.084 44.08 248.628 43.472 246.804 43.472C244.98 43.472 243.508 44.08 242.388 45.296C241.3 46.512 240.756 48.08 240.756 50C240.756 51.92 241.3 53.488 242.388 54.704ZM274.413 72.032H267.261L272.301 60.656L262.221 38H269.421L275.853 53.552L282.237 38H289.485L274.413 72.032Z" fill="#9B59B6"/>
</svg>
